<?xml version="1.0" encoding="UTF-8"?>
<svg version="1.1" xmlns="http://www.w3.org/2000/svg" width="500" height="360">
<path d="M0 0 C165 0 330 0 500 0 C500 118.8 500 237.6 500 360 C335 360 170 360 0 360 C0 241.2 0 122.4 0 0 Z " fill="#222224" transform="translate(0,0)"/>
<path d="M0 0 C1.22460938 0.45761719 2.44921875 0.91523437 3.7109375 1.38671875 C16.17306475 6.32020731 26.47773757 13.63487061 36 23 C36.76054687 23.74765625 37.52109375 24.4953125 38.3046875 25.265625 C57.40368005 45.22374178 62.89393842 69.59915311 62.3671875 96.4765625 C61.67927913 116.03560253 53.97084638 134.31283773 41 149 C40.31292969 149.81726563 39.62585938 150.63453125 38.91796875 151.4765625 C26.05607711 166.38824773 9.84034644 175.76423408 -9 181 C-10.16015625 181.36222656 -11.3203125 181.72445312 -12.515625 182.09765625 C-18.80625468 183.62725821 -25.31100818 183.4860313 -31.75 183.5 C-32.43641571 183.5023465 -33.12283142 183.50469299 -33.83004761 183.5071106 C-46.00241121 183.48993125 -56.74995637 181.79237056 -68 177 C-68.66257813 176.7220459 -69.32515625 176.4440918 -70.0078125 176.15771484 C-95.12112507 165.31044142 -111.98217471 144.66477539 -122.28125 119.921875 C-125.83264949 110.63750204 -126.21212473 101.81726276 -126.24023438 91.94140625 C-126.24987894 89.90061704 -126.28094 87.86086378 -126.3125 85.8203125 C-126.52262773 59.88280653 -115.3477999 38.89687701 -97.875 20.4375 C-72.77657651 -4.06584232 -32.85805255 -13.33319263 0 0 Z " fill="#FFBC5E" transform="translate(198,81)"/>
<path d="M0 0 C8.58 0 17.16 0 26 0 C26.04583208 7.65395709 26.0856816 15.30744095 26.10986328 22.96142578 C26.11994064 25.56691091 26.1336027 28.17238469 26.15087891 30.77783203 C26.17505102 34.51597899 26.1864656 38.25397685 26.1953125 41.9921875 C26.20563507 43.16304901 26.21595764 44.33391052 26.22659302 45.54025269 C26.22674408 46.62122223 26.22689514 47.70219177 26.22705078 48.81591797 C26.231492 49.77078094 26.23593323 50.72564392 26.24050903 51.70944214 C26 54 26 54 24 56 C20.96311719 56.20902832 17.97748587 56.31960483 14.9375 56.375 C-14.9758846 57.44112925 -40.16536873 71.04018816 -60.80859375 92.421875 C-78.10766564 111.16470793 -86.4214568 136.17085057 -86.25 161.375 C-86.25773437 162.50421875 -86.26546875 163.6334375 -86.2734375 164.796875 C-86.25535617 172.69841685 -85.40338764 180.23059606 -84 188 C-83.82944092 188.9909668 -83.65888184 189.98193359 -83.4831543 191.00292969 C-79.41640439 213.07311359 -61.4478653 236.67702145 -43.484375 249.6328125 C-40.09135477 251.93962931 -36.59053131 254.01727291 -33 256 C-32.1018457 256.49669189 -32.1018457 256.49669189 -31.18554688 257.00341797 C-24.04785696 260.88334407 -16.93486387 264.15631104 -9 266 C-7.9171875 266.26554687 -6.834375 266.53109375 -5.71875 266.8046875 C2.52535314 268.65432602 10.48732151 269.42940358 18.91772461 269.70947266 C24.91199436 269.91199436 24.91199436 269.91199436 26 271 C26.0935919 272.71865409 26.11744611 274.44115744 26.11352539 276.16235352 C26.11344986 277.26341934 26.11337433 278.36448517 26.11329651 279.49891663 C26.10813522 280.6968132 26.10297394 281.89470978 26.09765625 283.12890625 C26.09553383 284.95795753 26.09553383 284.95795753 26.09336853 286.82395935 C26.08774967 290.7368307 26.07519396 294.64964581 26.0625 298.5625 C26.05748743 301.20768147 26.0529241 303.85286383 26.04882812 306.49804688 C26.03862296 312.99873726 26.01905121 319.49930533 26 326 C17.42 326 8.84 326 0 326 C-4.45634741 314.85913149 -4.45634741 314.85913149 -5.89453125 309.84375 C-6.36922852 308.28140625 -6.36922852 308.28140625 -6.85351562 306.6875 C-7.50051353 304.53698965 -8.12771062 302.38043587 -8.73632812 300.21875 C-9.64154649 297.30456614 -10.52081438 294.66978503 -12 292 C-15.37463331 290.20709411 -15.37463331 290.20709411 -19 290 C-21.27290763 289.18619869 -23.53300474 288.34753791 -25.7890625 287.48828125 C-29.26879468 286.71978916 -31.63879304 287.21036967 -34.734375 289.00610352 C-36.75346197 290.3346275 -38.7226477 291.71755261 -40.6875 293.125 C-41.39358398 293.61838867 -42.09966797 294.11177734 -42.82714844 294.62011719 C-45.95928137 296.81361183 -49.05731929 299.04250644 -52.12890625 301.3203125 C-52.99386719 301.95710938 -53.85882813 302.59390625 -54.75 303.25 C-55.48734375 303.81203125 -56.2246875 304.3740625 -56.984375 304.953125 C-59 306 -59 306 -60.87744141 305.73388672 C-63.2773498 304.90410473 -64.93556305 303.81320959 -66.9765625 302.3046875 C-67.72566895 301.75699707 -68.47477539 301.20930664 -69.24658203 300.64501953 C-70.42389893 299.76885986 -70.42389893 299.76885986 -71.625 298.875 C-77.89427287 294.17587532 -77.89427287 294.17587532 -84.40625 289.828125 C-85.3034375 289.26609375 -86.200625 288.7040625 -87.125 288.125 C-87.89070313 287.67382812 -88.65640625 287.22265625 -89.4453125 286.7578125 C-91.36647445 284.58564446 -91.51442358 283.02047456 -91.35058594 280.16308594 C-90.59412468 275.49578317 -89.03519389 271.04398531 -87.5625 266.5625 C-86.91156759 264.56587763 -86.26689806 262.56720118 -85.62890625 260.56640625 C-85.1968689 259.25071655 -85.1968689 259.25071655 -84.75610352 257.90844727 C-82.7115946 250.45131211 -82.7115946 250.45131211 -84.43505859 243.20458984 C-87.09146686 238.75012406 -90.00930348 234.13504835 -95.02600098 232.2310791 C-100.52688978 231.09748228 -106.04687629 231.38213994 -111.625 231.625 C-113.31373048 231.64704524 -115.00255668 231.66272312 -116.69140625 231.671875 C-120.79905219 231.70785055 -124.89580867 231.82992099 -129 232 C-131.97934984 225.11029898 -134.71182358 218.30664688 -136.6875 211.0625 C-138.17759781 205.59334841 -138.17759781 205.59334841 -140.20703125 200.30859375 C-141.21166151 197.38378348 -140.90162479 195.94280703 -140 193 C-138.34521484 191.2265625 -138.34521484 191.2265625 -136.2109375 189.625 C-135.43363281 189.03203125 -134.65632812 188.4390625 -133.85546875 187.828125 C-133.03691406 187.22484375 -132.21835938 186.6215625 -131.375 186 C-130.57964844 185.39671875 -129.78429687 184.7934375 -128.96484375 184.171875 C-126.65688734 182.42859101 -124.33189782 180.71107448 -122 179 C-121.31454102 178.48824219 -120.62908203 177.97648438 -119.92285156 177.44921875 C-115.23725792 174 -115.23725792 174 -113 174 C-112.07091325 161.48130972 -112.07091325 161.48130972 -115.953125 150.0234375 C-118.27365968 148.1683993 -120.60410328 146.57151813 -123.17871094 145.09130859 C-126.85078821 142.89101564 -130.24371382 140.28617509 -133.6875 137.75 C-134.76656616 137.00544556 -134.76656616 137.00544556 -135.86743164 136.24584961 C-140.86602901 132.65901907 -140.86602901 132.65901907 -141.53125 129.38671875 C-141.04735639 127.21275555 -140.5637656 125.15857254 -139.8125 123.0625 C-139.54050781 122.29035156 -139.26851562 121.51820313 -138.98828125 120.72265625 C-138.66214844 119.82417969 -138.33601562 118.92570312 -138 118 C-137.16649579 115.6667277 -136.33317387 113.33339028 -135.5 111 C-135.07074219 109.80890625 -134.64148438 108.6178125 -134.19921875 107.390625 C-133.1850742 104.52327168 -132.23336155 101.64814296 -131.3125 98.75 C-130 95 -130 95 -128 93 C-125.4539564 92.90083533 -123.00507712 92.91664187 -120.46484375 93.0078125 C-118.91735177 93.02650924 -117.36981878 93.04202927 -115.82226562 93.0546875 C-113.3863105 93.08109352 -110.9568836 93.12421611 -108.52270508 93.22265625 C-99.51923846 93.86206178 -99.51923846 93.86206178 -91.37432861 90.80065918 C-88.26349993 87.59214074 -86.15347039 83.90511506 -84 80 C-83.34 79.34 -82.68 78.68 -82 78 C-82.0910299 76.1063753 -82.0910299 76.1063753 -82.6875 74 C-82.98914063 72.79537109 -82.98914063 72.79537109 -83.296875 71.56640625 C-84.83896331 65.93778392 -86.42692467 60.37350994 -88.5625 54.9375 C-90.19825935 50.727572 -91.12969041 46.42322051 -92 42 C-88.6828117 39.48283946 -85.34983877 36.98806036 -82.00830078 34.50341797 C-80.58249111 33.43605401 -79.16213234 32.36139131 -77.74560547 31.28173828 C-75.36154567 29.4653818 -72.96319354 27.66929252 -70.5625 25.875 C-69.40935303 24.98615112 -69.40935303 24.98615112 -68.23291016 24.0793457 C-67.49733887 23.5349585 -66.76176758 22.99057129 -66.00390625 22.4296875 C-65.35236572 21.93710449 -64.7008252 21.44452148 -64.02954102 20.93701172 C-61.27934798 19.66728468 -59.84667428 20.08364737 -57 21 C-55.21411133 22.01220703 -55.21411133 22.01220703 -53.58203125 23.2578125 C-52.97214355 23.71575195 -52.36225586 24.17369141 -51.73388672 24.64550781 C-51.0998291 25.13374023 -50.46577148 25.62197266 -49.8125 26.125 C-48.47813598 27.12275889 -47.14349991 28.12015406 -45.80859375 29.1171875 C-43.52273338 30.84251516 -41.2457433 32.57810126 -38.97265625 34.3203125 C-38.11542969 34.95710938 -37.25820312 35.59390625 -36.375 36.25 C-35.64023438 36.81203125 -34.90546875 37.3740625 -34.1484375 37.953125 C-31.26512259 39.35808572 -30.05753222 38.90135343 -27 38 C-25.18628906 37.566875 -25.18628906 37.566875 -23.3359375 37.125 C-22.01453762 36.75384983 -20.69423724 36.37876538 -19.375 36 C-18.70726563 35.84144531 -18.03953125 35.68289062 -17.3515625 35.51953125 C-14.52830301 34.67819992 -12.44494487 33.81329464 -10.99731445 31.16723633 C-10.20915795 28.79910461 -9.60121342 26.4220445 -9 24 C-8.43284914 22.28967542 -7.84782849 20.5851844 -7.24609375 18.88671875 C-6.94896484 18.03142578 -6.65183594 17.17613281 -6.34570312 16.29492188 C-6.04599609 15.43447266 -5.74628906 14.57402344 -5.4375 13.6875 C-5.13392578 12.80771484 -4.83035156 11.92792969 -4.51757812 11.02148438 C-4.22173828 10.17263672 -3.92589844 9.32378906 -3.62109375 8.44921875 C-3.3573999 7.68955811 -3.09370605 6.92989746 -2.82202148 6.1472168 C-2.01591372 4.04156852 -1.00832181 2.01664363 0 0 Z " fill="#FFBC5E" transform="translate(146,7)"/>
<path d="M0 0 C8.83674979 8.64037757 14.80774982 19.55865298 15.10498047 31.99414062 C15.17292113 40.07410778 14.8751302 46.55838754 10.8125 53.75 C10.15894531 55.00683594 10.15894531 55.00683594 9.4921875 56.2890625 C2.5699998 68.80952221 -7.27966747 75.46557534 -20.734375 79.92578125 C-32.23049899 82.6697656 -44.46262517 80.75057405 -54.625 74.8125 C-65.86365546 67.68137344 -72.38781451 58.45855261 -76.1875 45.75 C-76.6825 44.265 -76.6825 44.265 -77.1875 42.75 C-78.23689432 26.94027239 -75.84048648 15.07786186 -65.1875 2.75 C-46.49361139 -16.75506326 -20.81614301 -14.69374801 0 0 Z " fill="#222224" transform="translate(197.1875,135.25)"/>
<path d="M0 0 C1.12201435 -0.06381489 2.2440287 -0.12762978 3.40004349 -0.19337845 C31.00842353 -1.58275452 53.8515137 0.62482539 75.32223701 19.28541374 C92.05282778 34.43278052 107.15514694 51.60044779 121.08755493 69.33956909 C121.7062102 70.11992681 122.32486547 70.90028452 122.96226788 71.70428944 C124.10946982 73.16115052 125.24110027 74.6304613 126.35387135 76.11378765 C127.98781332 78.27706403 127.98781332 78.27706403 130.6875 80.8125 C133.3901882 80.98329169 133.3901882 80.98329169 135.6875 79.8125 C143.79462102 76.8119594 153.38837945 76.30996455 161.7734375 78.6875 C170.04002021 82.55371715 175.71065449 88.70585338 179.6875 96.8125 C182.3193038 104.91986875 181.65833857 114.82535685 178.08203125 122.49609375 C173.74108521 129.70668479 167.98969562 135.95490355 159.72363281 138.39135742 C151.92253393 140.00489406 141.1456762 140.40996293 134.25 136.0078125 C133.734375 135.61335937 133.21875 135.21890625 132.6875 134.8125 C131.1096875 133.6678125 131.1096875 133.6678125 129.5 132.5 C122.35759182 125.67503219 118.63297989 118.2891784 118.3125 108.3125 C118.43215877 103.81584933 119.29060384 100.05775305 120.93359375 95.8828125 C121.18238281 95.19960938 121.43117188 94.51640625 121.6875 93.8125 C121.97184402 93.09439148 122.25618805 92.37628296 122.54914856 91.63641357 C122.76212933 87.28922874 120.2532685 84.79497662 117.6550293 81.55957031 C117.09856751 80.84861993 116.54210573 80.13766954 115.96878147 79.40517521 C108.47938706 69.96583118 100.52049396 60.93729995 92.375 52.0625 C91.5904607 51.20326557 90.8059214 50.34403114 89.99760818 49.45875931 C68.2351926 25.85752769 49.00501247 11.76561587 16.24494934 10.42648315 C9.52569114 10.27468263 2.83773672 10.44600316 -3.875 10.75 C-4.98431004 10.80019791 -6.09362007 10.85039581 -7.23654556 10.90211487 C-21.00687963 11.58516146 -34.66098408 12.89634272 -48.3125 14.8125 C-48.00451674 13.33238629 -47.690982 11.85342675 -47.375 10.375 C-47.20097656 9.55128906 -47.02695312 8.72757813 -46.84765625 7.87890625 C-44.66579999 -0.54592559 -7.74690464 0.43289669 0 0 Z " fill="#FFBC5E" transform="translate(314.3125,196.1875)"/>
<path d="M0 0 C7.58376239 5.08825083 14.46329138 11.14560139 16.828125 20.2265625 C18.1890749 29.88930681 17.86131092 39.18719582 11.828125 47.2265625 C7.21473891 52.97323692 2.12506598 57.50579134 -5.171875 59.2265625 C-13.66789813 59.99534418 -22.46816598 59.69505694 -30.39556885 56.26417542 C-33.11223165 55.94001583 -33.11223165 55.94001583 -34.63114166 57.35058403 C-36.362675 59.20041844 -37.96333321 61.12008503 -39.55761719 63.08959961 C-40.85733167 64.62744819 -42.15855471 66.16402273 -43.46105957 67.69950867 C-44.15135757 68.52282873 -44.84165558 69.3461488 -45.5528717 70.19441795 C-100.18244717 134.75195071 -100.18244717 134.75195071 -130.453125 137.27734375 C-137.15065343 137.71595636 -143.73730194 137.51954909 -150.421875 136.9765625 C-151.6341703 136.87887636 -151.6341703 136.87887636 -152.87095642 136.77921677 C-162.77869358 135.9201706 -172.46887114 134.42229722 -182.171875 132.2265625 C-183.48814192 128.60682848 -184.171875 126.13089119 -184.171875 122.2265625 C-183.45923492 122.37835968 -182.74659485 122.53015686 -182.01235962 122.68655396 C-172.64806629 124.57194554 -163.3197984 125.71907156 -153.796875 126.3515625 C-153.02881279 126.40303059 -152.26075058 126.45449867 -151.46941376 126.5075264 C-130.3198332 127.71856816 -114.51441291 123.40780163 -98.3006897 109.46783447 C-89.36381459 101.45321497 -80.98170061 92.9391708 -72.796875 84.1640625 C-71.9719178 83.28004005 -71.1469606 82.39601761 -70.2970047 81.4852066 C-59.94131185 70.33182015 -49.92157823 58.91224751 -40.171875 47.2265625 C-40.45446167 46.63202774 -40.73704834 46.03749298 -41.02819824 45.42494202 C-41.39465454 44.63252609 -41.76111084 43.84011017 -42.13867188 43.02368164 C-42.50375854 42.24352188 -42.86884521 41.46336212 -43.24499512 40.65956116 C-44.76157908 36.67862813 -44.75388764 32.87746165 -44.671875 28.6640625 C-44.69507813 27.46620117 -44.69507813 27.46620117 -44.71875 26.24414062 C-44.6685607 18.54635675 -41.81947406 12.46234492 -36.73046875 6.67578125 C-27.52078468 -1.8876092 -11.89870921 -5.73496345 0 0 Z " fill="#FFBC5E" transform="translate(453.171875,13.7734375)"/>
<path d="M0 0 C6.93635538 5.15021647 13.19620904 11.17516272 14.88549805 19.99023438 C15.07928278 22.22640489 15.13076525 24.40427596 15.09765625 26.6484375 C15.08855225 27.43524902 15.07944824 28.22206055 15.07006836 29.03271484 C14.69589029 38.54641212 10.89784505 44.80681341 4.09765625 51.3359375 C-4.03350793 57.92731311 -11.18240143 58.55072623 -21.52734375 57.8359375 C-29.22380239 57.01131693 -35.5524969 53.21113757 -40.6171875 47.46484375 C-44.5671198 42.15787949 -45.53627853 39.77339406 -46.52734375 32.8359375 C-87.44734375 32.8359375 -128.36734375 32.8359375 -170.52734375 32.8359375 C-170.52734375 29.2059375 -170.52734375 25.5759375 -170.52734375 21.8359375 C-129.60734375 21.8359375 -88.68734375 21.8359375 -46.52734375 21.8359375 C-46.19734375 19.5259375 -45.86734375 17.2159375 -45.52734375 14.8359375 C-41.41839612 6.72523217 -35.11891183 0.76263318 -26.90234375 -3.0390625 C-17.5644169 -6.06609183 -8.26902122 -5.18792789 0 0 Z " fill="#FFBC5E" transform="translate(443.52734375,146.1640625)"/>
<path d="M0 0 C0.68659698 -0.00574036 1.37319397 -0.01148071 2.08059692 -0.01739502 C3.52788607 -0.0214628 4.97528685 -0.01049568 6.42236328 0.01464844 C8.62135885 0.04670802 10.81295501 0.01499037 13.01171875 -0.0234375 C24.6976817 -0.05606776 24.6976817 -0.05606776 29.265625 3.71875 C31.7578125 6.796875 31.7578125 6.796875 31.7578125 8.796875 C32.7478125 9.126875 33.7378125 9.456875 34.7578125 9.796875 C36.12420592 11.4365471 37.4527544 13.10797628 38.7578125 14.796875 C39.88705895 15.94522524 41.0191361 17.09093283 42.16552734 18.22216797 C44.10328519 20.13853382 46.01979278 22.07528974 47.9375 24.01171875 C49.50254269 25.58599862 51.06764847 27.16021577 52.6328125 28.734375 C53.41011719 29.52005859 54.18742187 30.30574219 54.98828125 31.11523438 C59.41951477 35.56508652 63.92669403 39.78382593 68.7578125 43.796875 C69.4384375 43.508125 70.1190625 43.219375 70.8203125 42.921875 C80.02167424 39.39794923 89.44173608 37.92412419 99.0078125 41.296875 C106.89734359 44.96582767 113.38534296 50.81819354 116.9453125 58.828125 C119.327224 67.53126316 118.96375698 77.53153413 115 85.69140625 C110.02482262 94.12417546 103.07765874 98.50856149 93.68359375 101.4453125 C84.55356116 103.11205273 76.20704434 101.38861782 68.5703125 96.171875 C61.68398099 90.62988709 56.51073403 82.23853698 55.4765625 73.390625 C55.25250307 67.34102033 56.50348217 62.37065505 58.7578125 56.796875 C59.42479904 55.13033632 60.09150133 53.46368382 60.7578125 51.796875 C60.3156842 51.3547467 59.87355591 50.91261841 59.41802979 50.45709229 C24.7578125 15.796875 24.7578125 15.796875 22.7520752 13.59606934 C19.74500717 10.883137 16.5663891 11.19385886 12.7109375 11.1875 C11.93973572 11.17096375 11.16853394 11.15442749 10.3739624 11.13739014 C7.91849796 11.08892907 5.46365266 11.06754463 3.0078125 11.046875 C1.33981263 11.01871354 -0.32815842 10.98878586 -1.99609375 10.95703125 C-6.078074 10.88317128 -10.15971095 10.83358564 -14.2421875 10.796875 C-11.23253662 3.68315474 -7.88992443 0.04204756 0 0 Z " fill="#FFBC5E" transform="translate(259.2421875,233.203125)"/>
<path d="M0 0 C1.4656807 0.89280042 2.90770014 1.82667554 4.3125 2.8125 C5.385 3.534375 6.4575 4.25625 7.5625 5 C15.04380516 12.65133482 17.70467824 20.16022101 17.58984375 30.6484375 C16.88880781 38.64617147 12.98459129 46.16464841 7.3125 51.8125 C-0.51911012 57.72562845 -8.3278739 60.32815183 -18.09375 60.22265625 C-22.03147122 59.59997443 -25.09534162 57.78291672 -28.4609375 55.7109375 C-30.62237908 54.55004265 -30.62237908 54.55004265 -32.57714844 55.50119019 C-35.04492112 57.03459088 -36.72032354 58.74819025 -38.6796875 60.89501953 C-39.45570313 61.73574005 -40.23171875 62.57646057 -41.03125 63.44265747 C-42.28421875 64.80522171 -42.28421875 64.80522171 -43.5625 66.1953125 C-45.36955423 68.10568197 -47.17885716 70.01358831 -48.9921875 71.91796875 C-51.84265181 74.91176492 -54.67793626 77.91501214 -57.45410156 80.97802734 C-74.53031812 99.76597769 -74.53031812 99.76597769 -85.11181641 100.44747925 C-90.71270178 100.32748788 -94.95668892 100.11031113 -99.53125 96.68017578 C-101.86344563 93.93638108 -103.6875 91.50030349 -103.6875 87.8125 C-103.09975296 87.88465225 -102.51200592 87.9568045 -101.90644836 88.03114319 C-92.24625258 88.99140948 -83.12709085 89.2596583 -75.16552734 83.07373047 C-69.68057925 78.16246692 -64.77623947 72.73326462 -59.875 67.25 C-57.27896478 64.46460295 -54.66725289 61.69453214 -52.05476379 58.92457581 C-50.44634201 57.20669272 -48.85100107 55.47644948 -47.27030945 53.73301697 C-46.56388809 52.95543533 -45.85746674 52.1778537 -45.12963867 51.37670898 C-44.5106218 50.68689438 -43.89160492 49.99707977 -43.25382996 49.28636169 C-41.6875 47.8125 -41.6875 47.8125 -39.6875 47.8125 C-40.0484375 47.04808594 -40.409375 46.28367188 -40.78125 45.49609375 C-44.83755467 36.13279048 -46.85554655 26.96609853 -43.80078125 16.88671875 C-40.0610916 8.69915902 -33.94576022 2.46767787 -25.7578125 -1.30078125 C-17.50610192 -3.68390886 -7.8252046 -3.72910658 0 0 Z " fill="#FFBC5E" transform="translate(353.6875,14.1875)"/>
<path d="M0 0 C6.22470267 3.48583349 9.95110885 6.88326447 12.125 13.75 C13.3940479 21.00635084 12.16231658 26.50219158 8.01171875 32.578125 C4.08343431 37.10012531 0.08649313 39.24062318 -5.8046875 40.25390625 C-12.29358653 40.6419193 -16.81784778 39.59671838 -21.9609375 35.56640625 C-27.21376722 30.58157804 -29.16936006 26.58342442 -29.5 19.25 C-29.20827311 12.24855464 -27.212867 8.07952233 -22.3125 3.19140625 C-16.22061512 -2.18468216 -7.55345644 -3.06131274 0 0 Z " fill="#FFBC5E" transform="translate(447.875,23.25)"/>
<path d="M0 0 C4.96605145 3.34919749 8.99716594 6.37740315 11.6875 11.8125 C12.64401361 18.54256425 12.50024379 25.22949451 8.95703125 31.1640625 C5.66724483 35.43572364 1.81678901 38.10772173 -3.3125 39.8125 C-8.71071128 40.43732661 -13.63206948 40.57344967 -18.625 38.3125 C-28.83135946 28.81821213 -28.83135946 28.81821213 -29.515625 21.69921875 C-29.67082774 14.41762333 -28.02006478 9.37046606 -22.9375 4 C-16.73670855 -2.18663439 -8.04860877 -2.88535031 0 0 Z " fill="#FFBC5E" transform="translate(348.3125,23.1875)"/>
<path d="M0 0 C4.9578419 2.86982772 10.42048838 7.50816827 12.23828125 13.09375 C13.35701889 19.44965506 13.0218921 25.55326328 9.59375 31.11328125 C3.94048583 37.26977159 -0.26023655 40.15394728 -8.59375 40.55078125 C-15.847187 40.4636238 -20.09914128 37.4591149 -25.07421875 32.42578125 C-29.0275727 27.2875285 -29.19637057 21.77856554 -28.953125 15.4609375 C-28.12212225 10.3740135 -26.12900516 7.56181561 -22.40625 4.11328125 C-21.91125 3.58863281 -21.41625 3.06398438 -20.90625 2.5234375 C-15.29463459 -2.54104541 -6.85410654 -2.52578277 0 0 Z " fill="#FFBC5E" transform="translate(472.40625,284.88671875)"/>
<path d="M0 0 C5.65115868 3.07402819 10.08721318 6.70964782 12.18359375 12.92578125 C13.52128611 20.43345003 12.47094444 26.48224891 8.14453125 32.7890625 C3.50667139 37.84266677 -2.14197374 40.14307929 -8.94140625 40.48828125 C-15.33286706 40.1170347 -20.39092956 37.81515776 -24.69140625 33.05078125 C-28.95358811 26.78286674 -29.97615536 20.39166615 -28.81640625 12.92578125 C-26.44574641 7.26931714 -22.5467998 2.69466017 -17.14453125 -0.25390625 C-11.38016229 -2.28497585 -5.69703682 -2.1729336 0 0 Z " fill="#FFBC5E" transform="translate(435.81640625,154.07421875)"/>
<path d="M0 0 C4.74156902 4.32501996 7.57119653 7.86661578 8.23828125 14.296875 C8.42392001 20.43272445 7.65235142 24.96961415 4 30 C0.61427239 33.55772981 -3.31973706 36.69003762 -8.296875 37.265625 C-21.61193616 37.18081569 -21.61193616 37.18081569 -25.98046875 33.19140625 C-31.82854712 26.61985426 -33.57362593 22.41372488 -33.4453125 13.5234375 C-32.78670958 8.31238632 -30.75310362 5.53132932 -27 2 C-26.21109375 1.23042969 -26.21109375 1.23042969 -25.40625 0.4453125 C-17.87988645 -6.35145458 -8.15722871 -5.25331366 0 0 Z " fill="#FFBC5E" transform="translate(359,287)"/>
<path d="M0 0 C1.32 0.33 2.64 0.66 4 1 C0.04 4.465 0.04 4.465 -4 8 C6.23 8.33 16.46 8.66 27 9 C27 9.33 27 9.66 27 10 C15.78 10 4.56 10 -7 10 C-4.98127747 5.96255494 -2.91899872 3.37989325 0 0 Z " fill="#FFBC5E" transform="translate(252,234)"/>
<path d="M0 0 C1.32 0.33 2.64 0.66 4 1 C0.04 4.465 0.04 4.465 -4 8 C-3.67 8.66 -3.34 9.32 -3 10 C-4.32 10 -5.64 10 -7 10 C-5.33248852 6.05860922 -2.77289351 3.2107188 0 0 Z " fill="#5A5A5A" transform="translate(252,234)"/>
<path d="M0 0 C0.66 0.33 1.32 0.66 2 1 C-1.3 4.3 -4.6 7.6 -8 11 C-8 7.0234755 -6.61988497 5.9109833 -4 3 C-1.75 1.1875 -1.75 1.1875 0 0 Z " fill="#FFBC5E" transform="translate(422,16)"/>
</svg>
