<svg width="200" height="150" viewBox="0 0 200 150" fill="none" xmlns="http://www.w3.org/2000/svg">
  <!-- Background (optional, if you want to use a dark background) -->
  
  <!-- Monitor -->
  <rect x="20" y="10" width="160" height="90" rx="10" ry="10" fill="#FFBC5E" stroke="#FFDB6E" stroke-width="2"/>
  <!-- Monitor Screen -->
  <rect x="30" y="20" width="140" height="70" fill="#443d2e"/>
  <!-- Stand -->
  <rect x="85" y="100" width="30" height="10" fill="#FFBC5E"/>
  <rect x="70" y="110" width="60" height="5" fill="#FFBC5E"/>
  <!-- Keyboard -->
  <rect x="40" y="120" width="120" height="10" rx="2" ry="2" fill="#FFBC5E" stroke="#FFDB6E" stroke-width="1"/>
  <!-- Keys -->
  <g fill="#FFDB6E">
    <rect x="45" y="122" width="10" height="6" rx="1"/>
    <rect x="58" y="122" width="10" height="6" rx="1"/>
    <rect x="71" y="122" width="10" height="6" rx="1"/>
    <rect x="84" y="122" width="10" height="6" rx="1"/>
    <rect x="97" y="122" width="10" height="6" rx="1"/>
    <rect x="110" y="122" width="10" height="6" rx="1"/>
    <rect x="123" y="122" width="10" height="6" rx="1"/>
  </g>
</svg>
